HIERARCHY
ROOT Hips
{
	OFFSET 0.00000 0.00000 0.00000
	CHANNELS 6 Xposition Yposition Zposition Zrotation Yrotation Xrotation 
	JOINT LHipJoint
	{
		OFFSET 0 0 0
		CHANNELS 3 Zrotation Yrotation Xrotation
		JOINT LeftHip
		{
			OFFSET 1.62964 -1.40469 0.78906
			CHANNELS 3 Zrotation Yrotation Xrotation
			JOINT LeftKnee
			{
				OFFSET 2.29640 -6.30932 0.00000
				CHANNELS 3 Zrotation Yrotation Xrotation
				JOINT LeftAnkle
				{
					OFFSET 2.29451 -6.30412 0.00000
					CHANNELS 3 Zrotation Yrotation Xrotation
					JOINT LeftToe
					{
						OFFSET 0.03611 -0.09921 1.56387
						CHANNELS 3 Zrotation Yrotation Xrotation
						End Site
						{
							OFFSET 0.00000 -0.00000 0.80291
						}
					}
				}
			}
		}
	}
	JOINT RHipJoint
	{
		OFFSET 0 0 0
		CHANNELS 3 Zrotation Yrotation Xrotation
		JOINT RightHip
		{
			OFFSET -1.73712 -1.40469 0.78906
			CHANNELS 3 Zrotation Yrotation Xrotation
			JOINT RightKnee
			{
				OFFSET -2.28137 -6.26801 0.00000
				CHANNELS 3 Zrotation Yrotation Xrotation
				JOINT RightAnkle
				{
					OFFSET -2.28681 -6.28298 0.00000
					CHANNELS 3 Zrotation Yrotation Xrotation
					JOINT RightToe
					{
						OFFSET -0.15927 -0.43759 1.61103
						CHANNELS 3 Zrotation Yrotation Xrotation
						End Site
						{
							OFFSET -0.00000 -0.00000 0.84630
						}
					}
				}
			}
		}
	}
	JOINT lowerback
	{
		OFFSET 0 0 0
		CHANNELS 3 Zrotation Yrotation Xrotation
		JOINT Chest
		{
			OFFSET -0.04227 2.04338 -0.00225
			CHANNELS 3 Zrotation Yrotation Xrotation
			JOINT Chest2
			{
				OFFSET -0.02148 2.04482 -0.04273
				CHANNELS 3 Zrotation Yrotation Xrotation
				JOINT lowerneck
				{
					OFFSET 0 0 0
					CHANNELS 3 Zrotation Yrotation Xrotation
					JOINT Neck
					{
						OFFSET 0.09180 1.44629 0.19359
						CHANNELS 3 Zrotation Yrotation Xrotation
						JOINT Head
						{
							OFFSET 0.00887 1.40645 0.14750
							CHANNELS 3 Zrotation Yrotation Xrotation
							End Site
							{
								OFFSET -0.00669 1.50671 0.03707
							}
						}
					}
				}
				JOINT LeftCollar
				{
					OFFSET 0 0 0
					CHANNELS 3 Zrotation Yrotation Xrotation
					JOINT LeftShoulder
					{
						OFFSET 2.17674 1.86763 -0.06520
CHANNELS 3 Zrotation Xrotation Yrotation
						JOINT LeftElbow
						{
OFFSET 0 -4.657760 0.000000
CHANNELS 3 Zrotation Xrotation Yrotation
							JOINT LeftWrist
							{
OFFSET 0 -3.555390 0.000000
CHANNELS 3 Zrotation Xrotation Yrotation
								JOINT lhand
								{
									OFFSET 0 0 0
CHANNELS 3 Zrotation Xrotation Yrotation
									JOINT LFingers
									{
OFFSET 0 -0.707260 0.000000
CHANNELS 3 Zrotation Xrotation Yrotation
										End Site
										{
OFFSET 0 -0.570220 0.000000
										}
									}
								}
								JOINT LThumb
								{
OFFSET 0 0.000000 0.000000
CHANNELS 3 Zrotation Xrotation Yrotation
									End Site
									{
OFFSET 0 -0.578920 0.578920
									}
								}
							}
						}
					}
				}
				JOINT RightCollar
				{
					OFFSET 0 0 0
					CHANNELS 3 Zrotation Yrotation Xrotation
					JOINT RightShoulder
					{
						OFFSET -2.80694 1.55459 -0.32496
CHANNELS 3 Zrotation Xrotation Yrotation
						JOINT RightElbow
						{
OFFSET 0 -4.719250 -0.000000
CHANNELS 3 Zrotation Xrotation Yrotation
							JOINT RightWrist
							{
OFFSET 0 -3.569900 0.000000
CHANNELS 3 Zrotation Xrotation Yrotation
								JOINT rhand
								{
									OFFSET 0 0 0
CHANNELS 3 Zrotation Xrotation Yrotation
									JOINT RFingers
									{
OFFSET 0 -0.507760 0.000000
CHANNELS 3 Zrotation Xrotation Yrotation
										End Site
										{
OFFSET 0 -0.409370 0.000000
										}
									}
								}
								JOINT RThumb
								{
OFFSET 0 0.000000 0.000000
CHANNELS 3 Zrotation Xrotation Yrotation
									End Site
									{
OFFSET 0 -0.415620 0.415620
									}
								}
							}
						}
					}
				}
			}
		}
	}
}
MOTION
Frames: 4
Frame Time: 0.008333333333333333
10.703206 23.506401 8.717034 377.779295 -50.066422 18.937218 0.000000 0.000000 0.000000 -14.079421 -15.747889 -43.577044 7.049254 15.373128 49.060060 1.806501 19.136812 25.837293 6.684985 -15.060754 -47.672610 0.000000 0.000000 0.000000 15.091843 15.493888 -42.513505 -2.092395 -9.055757 25.969977 -0.553980 -12.792961 14.959757 -3.780360 11.861151 -35.243979 -9.117417 -0.863405 -27.757829 1.759364 1.213949 -3.726529 7.735703 0.071880 10.950194 -2.977171 -0.484347 -0.775911 6.726579 -1.149840 8.901682 2.712118 -0.477457 3.084556 0.000000 0.000000 0.000000 71.039534 19.550646 -33.384737 133.813437 -51.336256 96.838294 24.531343 -32.102680 29.246994 0.000000 0.000000 0.000000 -7.125000 0.000000 0.000000 -3.635951 -1.576756 -3.741957 0.000000 0.000000 0.000000 -8.663818 0.997292 58.578854 -56.447693 -55.273303 -31.405860 25.436666 -30.373152 47.062309 0.000000 0.000000 0.000000 7.125000 0.000000 0.000000 76.972799 61.104219 -42.946234
10.750834 23.506991 8.718281 378.534649 -52.651728 18.318056 0.000000 0.000000 0.000000 -13.944659 -15.535116 -43.590096 6.994271 15.327075 48.852589 1.847804 18.991464 26.028780 6.666983 -15.044926 -47.603382 0.000000 0.000000 0.000000 15.182443 15.199927 -42.599069 -2.125978 -9.123655 26.182889 -0.530168 -13.228133 14.907403 -3.651557 11.681525 -34.614735 -9.097725 -0.629556 -27.752563 1.715694 1.511656 -3.681174 7.779567 0.207940 10.943060 -3.062783 -0.460469 -0.749347 6.740747 -1.117874 8.880710 2.733274 -0.465842 3.071948 0.000000 0.000000 0.000000 71.560399 19.046345 -32.988636 133.497744 -51.483564 96.591621 24.662521 -32.197436 29.359828 0.000000 0.000000 0.000000 -7.125000 0.000000 0.000000 -3.576861 -1.723274 -3.689855 0.000000 0.000000 0.000000 -8.845319 0.946873 58.084683 -54.439157 -54.636052 -29.758135 25.997395 -30.355868 46.914285 0.000000 0.000000 0.000000 7.125000 0.000000 0.000000 77.134404 60.887553 -42.749347
10.804390 23.503586 8.710534 379.594416 -55.023081 17.380627 0.000000 0.000000 0.000000 -13.888232 -15.421326 -43.748493 6.982518 15.317192 48.808182 1.849206 18.937174 26.020834 6.500239 -14.895343 -46.956371 0.000000 0.000000 0.000000 15.079538 14.850544 -42.666715 -2.157163 -9.185826 26.378549 -0.437547 -14.241154 14.508672 -3.234194 11.051475 -32.468825 -9.267876 -0.611793 -27.537939 1.673357 1.574160 -3.550623 7.846546 0.223833 10.967100 -3.095838 -0.368048 -0.888178 6.679645 -0.987390 8.884516 2.723057 -0.402670 3.091247 0.000000 0.000000 0.000000 72.000065 18.864174 -32.363060 133.355373 -51.549140 96.480169 24.750935 -31.971659 29.330846 0.000000 0.000000 0.000000 -7.125000 0.000000 0.000000 -3.521235 -1.712857 -3.631691 0.000000 0.000000 0.000000 -8.892798 0.496122 57.877939 -52.382062 -53.896887 -28.091958 26.955325 -30.583247 47.148208 0.000000 0.000000 0.000000 7.125000 0.000000 0.000000 78.176007 60.708588 -43.448178
10.859801 23.496572 8.708791 380.660589 -57.280045 16.429878 0.000000 0.000000 0.000000 -13.796699 -15.424386 -43.914579 6.971608 15.307983 48.766944 1.843695 18.925003 25.985875 6.272388 -14.684453 -46.060248 0.000000 0.000000 0.000000 15.130241 14.282132 -42.787340 -2.173915 -9.219230 26.483628 -0.394162 -14.994206 14.458062 -3.016202 10.721187 -31.345292 -9.291365 -0.631530 -27.389951 1.613416 1.560687 -3.324535 7.786355 0.198618 11.158271 -3.081242 -0.262476 -1.162643 6.589778 -0.836098 8.897292 2.696249 -0.326009 3.137254 0.000000 0.000000 0.000000 72.468767 18.500744 -31.532854 132.995524 -51.712108 96.197674 24.812337 -31.801121 29.281732 0.000000 0.000000 0.000000 -7.125000 0.000000 0.000000 -3.478154 -1.675427 -3.584926 0.000000 0.000000 0.000000 -8.863895 -0.198243 57.788617 -50.328440 -53.110375 -26.441192 27.019362 -30.183718 47.448093 0.000000 0.000000 0.000000 7.125000 0.000000 0.000000 78.698918 60.805543 -44.102361
